<svg class="btyb-juliet nav-element z-1 absolute" xmlns="http://www.w3.org/2000/svg" xmlns:xlink="http://www.w3.org/1999/xlink" width="140" height="78.449" viewBox="0 0 140 78.449">
  <defs>
    <clipPath id="clip-path1">
      <path id="Union_1" data-name="Union 1" d="M7340.147,88.043a21.445,21.445,0,0,1-3.86-.887,5.082,5.082,0,0,1-2.759-2.324,4.044,4.044,0,0,1,.137-3.134,3.318,3.318,0,0,1,.465-.8,2.622,2.622,0,0,1,.664-.6,1.959,1.959,0,0,1,.811-.283,1.729,1.729,0,0,1,.685.064,2.049,2.049,0,0,1,1.523,2.059,4.163,4.163,0,0,0,.525,1.626l.118.2a4.427,4.427,0,0,0,.857,1.013,4.5,4.5,0,0,0,1.268.784,4.782,4.782,0,0,0,1.853.313,8.314,8.314,0,0,0,3.776-.8,7.015,7.015,0,0,0,2.609-2.253,10.229,10.229,0,0,0,1.525-3.462,18.336,18.336,0,0,0,.5-4.4V39.727a2.829,2.829,0,0,0-.144-1,1.379,1.379,0,0,0-.4-.585,1.352,1.352,0,0,0-.613-.285,4.059,4.059,0,0,0-.784-.071,7.74,7.74,0,0,0-1.553.2,12.807,12.807,0,0,0-1.953.6,16.518,16.518,0,0,0-2.067.985,9.822,9.822,0,0,0-1.851,1.326,6.651,6.651,0,0,0-1.328,1.652,3.947,3.947,0,0,0-.512,1.966,3.63,3.63,0,0,0,.242,1.455,2.289,2.289,0,0,0,.557.812,1.459,1.459,0,0,0,.64.341,2.374,2.374,0,0,0,1.639-.171,6.744,6.744,0,0,0,.827-.512c.246-.182.48-.353.7-.514a1.238,1.238,0,0,1,.756-.242,1.959,1.959,0,0,1,.728.156,2.116,2.116,0,0,1,.712.5,2.852,2.852,0,0,1,.555.9,3.574,3.574,0,0,1,.229,1.354,4.124,4.124,0,0,1-.443,1.967,4.41,4.41,0,0,1-1.14,1.382,4.793,4.793,0,0,1-1.6.827,6.388,6.388,0,0,1-4.246-.2,5.428,5.428,0,0,1-1.868-1.3,5.566,5.566,0,0,1-1.168-1.939,6.929,6.929,0,0,1-.4-2.365,8.963,8.963,0,0,1,.712-3.607,10.135,10.135,0,0,1,1.955-2.95,13.151,13.151,0,0,1,2.905-2.294,19.131,19.131,0,0,1,3.606-1.639,24.306,24.306,0,0,1,4.048-.985,27.541,27.541,0,0,1,4.218-.326,11.753,11.753,0,0,1,3.635.441,4.85,4.85,0,0,1,1.909,1.069,2.477,2.477,0,0,1,.728,1.311,7.263,7.263,0,0,1,.113,1.14V72.65c0,2.585-.047,8.883-1.7,10.3-1.625,1.388-7.217,3.087-9.433,3.725-1.316.377-2.661.788-4.064,1.06l.007,0a13.565,13.565,0,0,1-3.4.361C7340.954,88.1,7340.421,88.068,7340.147,88.043Zm29.775-9.083a6.038,6.038,0,0,1-2.487-3.477c-.054-.158-.109-.317-.154-.48a9.474,9.474,0,0,1-.341-2.51V54.849c0-.171-.011-.356-.03-.555a1.96,1.96,0,0,0-.141-.57.96.96,0,0,0-1-.613,1.418,1.418,0,0,0-.953.384,7.342,7.342,0,0,0-.786.784l-.711-.6a16.974,16.974,0,0,1,1.067-1.326,9.342,9.342,0,0,1,1.555-1.382,8.937,8.937,0,0,1,2.093-1.1,7.5,7.5,0,0,1,2.637-.443,6.708,6.708,0,0,1,2.2.328,4.645,4.645,0,0,1,1.566.883,3.582,3.582,0,0,1,.941,1.311,4.185,4.185,0,0,1,.315,1.611V73.521a2.726,2.726,0,0,0,.127.814,2.62,2.62,0,0,0,.37.754,1.9,1.9,0,0,0,.613.557,1.736,1.736,0,0,0,.883.214,3.157,3.157,0,0,0,.764-.111c1.258-.364,3-.882,4.312-1.27V54.849c0-.171-.011-.356-.03-.555a1.873,1.873,0,0,0-.143-.57,1.064,1.064,0,0,0-.341-.443,1.077,1.077,0,0,0-.656-.171,1.426,1.426,0,0,0-.955.384,7.7,7.7,0,0,0-.784.784l-.713-.6a16.245,16.245,0,0,1,1.071-1.326,9.246,9.246,0,0,1,1.551-1.382,8.926,8.926,0,0,1,2.1-1.1,7.507,7.507,0,0,1,2.6-.439l0,0,.021,0,.01,0a.183.183,0,0,1,.032,0,6.659,6.659,0,0,1,2.817.5,3.71,3.71,0,0,1,1.512,1.227,3.549,3.549,0,0,1,.585,1.553c.011.092.019.18.028.268q.026.177.034.36c.024.3.038.576.038.825V76.456a3.856,3.856,0,0,1-.129.9,2.139,2.139,0,0,1-.6,1,3.717,3.717,0,0,1-1.354.8,5.871,5.871,0,0,1-1.664.306l-.017.023c-.075,0-.135-.013-.208-.015-.164.007-.329.015-.5.015a6.3,6.3,0,0,1-2.367-.356,3.438,3.438,0,0,1-1.281-.84,2.144,2.144,0,0,1-.529-1c-.03-.154-.053-.294-.069-.42-3.282,1.041-8.1,2.536-9.458,2.781a3.3,3.3,0,0,1-.583.047A6.355,6.355,0,0,1,7369.922,78.96Zm45.134.161a3.438,3.438,0,0,1-1.281-.84,2.126,2.126,0,0,1-.527-1,4.5,4.5,0,0,1-.1-.827V54.45a2.649,2.649,0,0,0-.385-1.439,1.41,1.41,0,0,0-1.3-.613,1.827,1.827,0,0,0-.827.171,4.375,4.375,0,0,0-.741.486l-.6-.713a15.736,15.736,0,0,1,1.467-1.069,11.263,11.263,0,0,1,1.754-.927,12.532,12.532,0,0,1,2.023-.656,9.885,9.885,0,0,1,2.281-.257,6.732,6.732,0,0,1,2.879.5,3.708,3.708,0,0,1,1.51,1.227,3.548,3.548,0,0,1,.585,1.553,12.572,12.572,0,0,1,.1,1.454V76.456a3.951,3.951,0,0,1-.128.9,2.139,2.139,0,0,1-.6,1,3.686,3.686,0,0,1-1.352.8,7.066,7.066,0,0,1-2.4.328A6.314,6.314,0,0,1,7415.056,79.121Zm-15.584,0a3.287,3.287,0,0,1-1.268-.84,2.182,2.182,0,0,1-.514-1,4.468,4.468,0,0,1-.1-.827V39.685a2.652,2.652,0,0,0-.386-1.44,1.413,1.413,0,0,0-1.3-.613,2.062,2.062,0,0,0-.84.158,3.652,3.652,0,0,0-.756.471l-.57-.685a17.293,17.293,0,0,1,1.454-1.069,10.619,10.619,0,0,1,1.753-.927,13.172,13.172,0,0,1,2.039-.655,9.758,9.758,0,0,1,2.279-.257,6.726,6.726,0,0,1,2.879.5,3.709,3.709,0,0,1,1.512,1.225,3.546,3.546,0,0,1,.583,1.54,11.7,11.7,0,0,1,.1,1.439V76.512a3.793,3.793,0,0,1-.127.885,2.046,2.046,0,0,1-.6.968,3.787,3.787,0,0,1-1.369.784,7.176,7.176,0,0,1-2.408.328A6.3,6.3,0,0,1,7399.472,79.121Zm59.5-.071a5.679,5.679,0,0,1-2.054-1.168,5.886,5.886,0,0,1-1.438-2,6.958,6.958,0,0,1-.54-2.879l-.024-17.39-3.264.96V53.891a17.711,17.711,0,0,0,2.926-1.681,18.145,18.145,0,0,0,4.177-4.231,16.836,16.836,0,0,0,2.734-6.529c0-.009,0-.019.006-.026h2.293v9.455l5.715-1.7q2.192-.63,1.979-1.369a.38.38,0,0,0-.381-.291c-.2-.011-.43-.036-.687-.069a2.138,2.138,0,0,1-.739-.248,1.3,1.3,0,0,1-.533-.825,1.617,1.617,0,0,1,.133-1.345,2.043,2.043,0,0,1,2.042-.838,1.942,1.942,0,0,1,.772.371,2.553,2.553,0,0,1,.595.675,3.325,3.325,0,0,1,.375.84,4.049,4.049,0,0,1-.212,3.13,4.632,4.632,0,0,1-3,2l-6.075,1.806V72.951a2.986,2.986,0,0,0,.57,2.1,2.084,2.084,0,0,0,1.568.583,2.3,2.3,0,0,0,1.368-.428,4.978,4.978,0,0,0,1.028-.97,5.957,5.957,0,0,0,.881-1.4l.885.4c-.285.608-.625,1.274-1.013,2a7.9,7.9,0,0,1-3.991,3.562,9.424,9.424,0,0,1-3.691.628A7.819,7.819,0,0,1,7458.973,79.05Zm-24.531-.527a11.987,11.987,0,0,1-4.175-2.693,13.189,13.189,0,0,1-2.922-4.475,18.1,18.1,0,0,1-.442-11.032,15.286,15.286,0,0,1,1.782-3.9,14.488,14.488,0,0,1,2.622-3.05,16.255,16.255,0,0,1,3.151-2.181,15.463,15.463,0,0,1,3.378-1.311,13.8,13.8,0,0,1,7,.015,8.188,8.188,0,0,1,2.607,1.225,5.079,5.079,0,0,1,1.555,1.782,4.645,4.645,0,0,1,.512,2.123,4.042,4.042,0,0,1-.111.925c-.009.1-.022.191-.034.291-.145,1.215-1.874,1.557-1.874,1.557l-4.869,1.274L7435.19,61.2c-.006.146-.017.3-.021.445-.006.193-.008.356-.011.535-.021.364-.024.743-.015,1.122,0,.1,0,.206,0,.3l.013-.007a28.763,28.763,0,0,0,.336,3.239c.005.03.009.049.009.049h0a8.626,8.626,0,0,0,.2,1.037,11.689,11.689,0,0,0,.784,2.153,11.445,11.445,0,0,0,1.268,2.067,9.874,9.874,0,0,0,1.739,1.752,8.306,8.306,0,0,0,2.181,1.227,7.322,7.322,0,0,0,2.622.456,7.1,7.1,0,0,0,1.854-.229,7.345,7.345,0,0,0,1.6-.626,10.31,10.31,0,0,0,1.426-.927q.683-.526,1.369-1.125l.711.683a19.094,19.094,0,0,1-1.681,1.939,13.773,13.773,0,0,1-2.479,1.981,14.291,14.291,0,0,1-3.393,1.54,14.635,14.635,0,0,1-4.419.613A13.45,13.45,0,0,1,7434.442,78.523Zm3.25-25.568a4.735,4.735,0,0,0-1.2,1.581,9.8,9.8,0,0,0-.743,2.209c-.15.69-.264,1.386-.356,2.084,1.421-.4,5.668-1.581,6.343-1.816a.9.9,0,0,0,.574-1.009c-.011-.073-.017-.139-.03-.214-.007-.032-.013-.051-.013-.051v-.015a6.324,6.324,0,0,0-.518-1.589,4.1,4.1,0,0,0-.939-1.283,1.98,1.98,0,0,0-1.369-.512A2.617,2.617,0,0,0,7437.692,52.955Zm-22.591-6.4a5.086,5.086,0,0,1-1.481-.84,3.8,3.8,0,0,1-1-1.24,3.489,3.489,0,0,1,0-3.065,3.918,3.918,0,0,1,1-1.268,4.917,4.917,0,0,1,1.481-.855,5.239,5.239,0,0,1,1.838-.313,5.161,5.161,0,0,1,1.81.313,4.741,4.741,0,0,1,1.469.855,3.992,3.992,0,0,1,.983,1.268,3.476,3.476,0,0,1,0,3.065,3.866,3.866,0,0,1-.983,1.24,4.9,4.9,0,0,1-1.469.84,5.118,5.118,0,0,1-1.81.313A5.2,5.2,0,0,1,7415.1,46.554ZM7466.132,26.6a3.678,3.678,0,0,1-1.242-.731.666.666,0,0,1-.306-.561.514.514,0,0,1,.152-.375.488.488,0,0,1,.358-.135.863.863,0,0,1,.561.255,3.021,3.021,0,0,0,1.971.748,2.164,2.164,0,0,0,1.769-.765,3.152,3.152,0,0,0,.628-2.108V20.971a6.085,6.085,0,0,1-1.564,1.478,3.211,3.211,0,0,1-1.716.493,1.885,1.885,0,0,1-1.479-.611,2.369,2.369,0,0,1-.527-1.651v-5.2l-.782.306a.905.905,0,0,1-.407.1.664.664,0,0,1-.426-.135.5.5,0,0,1-.152-.392.456.456,0,0,1,.118-.306.688.688,0,0,1,.322-.221l1.514-.544a1.758,1.758,0,0,1,.459-.084.6.6,0,0,1,.424.154.567.567,0,0,1,.154.424v5.781a1.51,1.51,0,0,0,.255.953.883.883,0,0,0,.782.323q1.426,0,3.025-2.4v-4.59a.7.7,0,0,1,.171-.51.614.614,0,0,1,.883,0,.775.775,0,0,1,.154.51v8.125a4.474,4.474,0,0,1-.442,2.024,3.171,3.171,0,0,1-1.259,1.36,3.668,3.668,0,0,1-1.9.493A4.338,4.338,0,0,1,7466.132,26.6Zm-42.823,0a3.683,3.683,0,0,1-1.242-.731.667.667,0,0,1-.306-.561.514.514,0,0,1,.152-.375.488.488,0,0,1,.358-.135.859.859,0,0,1,.561.255,3.021,3.021,0,0,0,1.972.748,2.163,2.163,0,0,0,1.769-.765,3.142,3.142,0,0,0,.628-2.108V20.971a6.058,6.058,0,0,1-1.562,1.478,3.226,3.226,0,0,1-1.718.493,1.88,1.88,0,0,1-1.478-.611,2.362,2.362,0,0,1-.529-1.651v-5.2l-.78.306a.913.913,0,0,1-.409.1.655.655,0,0,1-.424-.135.493.493,0,0,1-.154-.392.458.458,0,0,1,.118-.306.685.685,0,0,1,.324-.221l1.512-.544a1.745,1.745,0,0,1,.459-.084.612.612,0,0,1,.426.154.574.574,0,0,1,.152.424v5.781a1.51,1.51,0,0,0,.255.953.885.885,0,0,0,.782.323q1.429,0,3.025-2.4v-4.59a.7.7,0,0,1,.17-.51.614.614,0,0,1,.883,0,.772.772,0,0,1,.154.51v8.125a4.474,4.474,0,0,1-.442,2.024,3.159,3.159,0,0,1-1.259,1.36,3.667,3.667,0,0,1-1.9.493A4.346,4.346,0,0,1,7423.309,26.6Zm-50.524,0a3.247,3.247,0,0,1-1.242-.731.735.735,0,0,1-.306-.561.509.509,0,0,1,.154-.375.587.587,0,0,1,.374-.135.988.988,0,0,1,.544.238,2.8,2.8,0,0,0,1.99.765,2.175,2.175,0,0,0,1.784-.765,3.18,3.18,0,0,0,.63-2.108V21.293a3.168,3.168,0,0,1-1.157.883,3.673,3.673,0,0,1-1.529.306,3.511,3.511,0,0,1-1.939-.544,3.691,3.691,0,0,1-1.343-1.478,4.7,4.7,0,0,1-.477-2.159,4.707,4.707,0,0,1,.477-2.161,3.555,3.555,0,0,1,3.316-2.022,3.291,3.291,0,0,1,1.581.373,3.541,3.541,0,0,1,1.206,1.054v-.306a.61.61,0,0,1,.459-.628l1.038-.358a1.909,1.909,0,0,1,.44-.084.646.646,0,0,1,.426.154.55.55,0,0,1,.171.407.518.518,0,0,1-.1.289.662.662,0,0,1-.289.2l-.833.272a.368.368,0,0,0-.2.135.659.659,0,0,0-.051.308v7.037a4.455,4.455,0,0,1-.442,2.024,3.166,3.166,0,0,1-1.257,1.36,3.673,3.673,0,0,1-1.9.493A4.5,4.5,0,0,1,7372.784,26.6Zm-.034-11.034a2.751,2.751,0,0,0-.953,1.1,3.6,3.6,0,0,0-.356,1.634,3.494,3.494,0,0,0,.356,1.615,2.515,2.515,0,0,0,2.363,1.495,2.5,2.5,0,0,0,1.836-.748,3.159,3.159,0,0,0,.85-1.971V17.91a3.293,3.293,0,0,0-.85-1.988,2.5,2.5,0,0,0-1.836-.748A2.613,2.613,0,0,0,7372.75,15.564Zm84.576,7.073a3.491,3.491,0,0,1-1.275-1.1v.645a.684.684,0,0,1-.154.476.645.645,0,0,1-.475.171h-1.259a.758.758,0,0,1-.493-.154.442.442,0,0,1-.17-.392.5.5,0,0,1,.17-.39.823.823,0,0,1,.493-.137h.816V10.94l-.8.289a.813.813,0,0,1-.392.1.66.66,0,0,1-.424-.135.423.423,0,0,1-.17-.375c0-.249.153-.43.459-.544l1.512-.544a1.734,1.734,0,0,1,.442-.084.53.53,0,0,1,.578.578v5.22a3.458,3.458,0,0,1,1.225-.987,3.663,3.663,0,0,1,1.564-.339,3.551,3.551,0,0,1,1.971.561,3.912,3.912,0,0,1,1.36,1.581,5.335,5.335,0,0,1,.477,2.313,5.153,5.153,0,0,1-.477,2.294,3.639,3.639,0,0,1-1.36,1.581,3.41,3.41,0,0,1-1.971.578A3.5,3.5,0,0,1,7457.326,22.636Zm.084-7.039a2.925,2.925,0,0,0-1,1.208,4.214,4.214,0,0,0-.356,1.769,4.1,4.1,0,0,0,.356,1.75,2.765,2.765,0,0,0,1,1.208,2.5,2.5,0,0,0,1.444.441,2.454,2.454,0,0,0,1.413-.441,2.865,2.865,0,0,0,.968-1.208,4.348,4.348,0,0,0,.341-1.75,4.552,4.552,0,0,0-.341-1.769,2.9,2.9,0,0,0-.968-1.208,2.47,2.47,0,0,0-1.413-.424A2.52,2.52,0,0,0,7457.41,15.6Zm-25.584,6.868a3.8,3.8,0,0,1-1.429-1.581,4.969,4.969,0,0,1-.51-2.311,5.142,5.142,0,0,1,.51-2.329,3.818,3.818,0,0,1,3.5-2.125,3.977,3.977,0,0,1,2.108.561,3.857,3.857,0,0,1,1.41,1.564,5.136,5.136,0,0,1,.51,2.329,4.963,4.963,0,0,1-.51,2.311,3.834,3.834,0,0,1-1.41,1.581,3.96,3.96,0,0,1-2.108.561A3.831,3.831,0,0,1,7431.826,22.466Zm.051-6.341a3.79,3.79,0,0,0-.766,2.45,3.788,3.788,0,0,0,.766,2.448,2.484,2.484,0,0,0,2.023.934,2.533,2.533,0,0,0,2.039-.934,3.791,3.791,0,0,0,.765-2.448,3.793,3.793,0,0,0-.765-2.45,2.533,2.533,0,0,0-2.039-.934A2.484,2.484,0,0,0,7431.876,16.124ZM7408.6,22.466a3.785,3.785,0,0,1-1.427-1.581,4.969,4.969,0,0,1-.51-2.311,5.142,5.142,0,0,1,.51-2.329,3.812,3.812,0,0,1,3.5-2.125,3.965,3.965,0,0,1,2.108.561,3.862,3.862,0,0,1,1.413,1.564,5.141,5.141,0,0,1,.508,2.329,4.969,4.969,0,0,1-.508,2.311,3.839,3.839,0,0,1-1.413,1.581,3.948,3.948,0,0,1-2.108.561A3.837,3.837,0,0,1,7408.6,22.466Zm.053-6.341a3.79,3.79,0,0,0-.765,2.45,3.788,3.788,0,0,0,.765,2.448,2.484,2.484,0,0,0,2.022.934,2.535,2.535,0,0,0,2.041-.934,3.788,3.788,0,0,0,.765-2.448,3.79,3.79,0,0,0-.765-2.45,2.535,2.535,0,0,0-2.041-.934A2.484,2.484,0,0,0,7408.655,16.124ZM7402.67,22.5a2.046,2.046,0,0,1-.527-1.512V15.412H7400.8a.718.718,0,0,1-.493-.154.454.454,0,0,1-.186-.39c0-.364.225-.544.679-.544h1.343v-1.87a.639.639,0,0,1,.171-.476.581.581,0,0,1,.426-.188.6.6,0,0,1,.441.188.639.639,0,0,1,.17.476v1.87h1.955a.852.852,0,0,1,.51.135.46.46,0,0,1,.171.409.44.44,0,0,1-.171.39.746.746,0,0,1-.51.154h-1.955v5.439a1.279,1.279,0,0,0,.221.867.839.839,0,0,0,.7.255,2.56,2.56,0,0,0,1.36-.544,1.139,1.139,0,0,1,.51-.186.614.614,0,0,1,.392.135.463.463,0,0,1,.135.339.748.748,0,0,1-.407.6,3.66,3.66,0,0,1-1.021.51,3.108,3.108,0,0,1-1.054.2A2.044,2.044,0,0,1,7402.67,22.5Zm-11.391,0a2.047,2.047,0,0,1-.525-1.512V15.412h-1.345a.724.724,0,0,1-.494-.154.455.455,0,0,1-.186-.39c0-.364.227-.544.679-.544h1.345v-1.87a.646.646,0,0,1,.168-.476.586.586,0,0,1,.426-.188.6.6,0,0,1,.441.188.639.639,0,0,1,.171.476v1.87h1.954a.854.854,0,0,1,.51.135.461.461,0,0,1,.17.409.441.441,0,0,1-.17.39.744.744,0,0,1-.51.154h-1.954v5.439a1.276,1.276,0,0,0,.221.867.84.84,0,0,0,.7.255,2.567,2.567,0,0,0,1.36-.544,1.124,1.124,0,0,1,.508-.186.609.609,0,0,1,.392.135.463.463,0,0,1,.137.339.751.751,0,0,1-.409.6,3.664,3.664,0,0,1-1.02.51,3.113,3.113,0,0,1-1.054.2A2.048,2.048,0,0,1,7391.279,22.5Zm-37.247-.034a3.782,3.782,0,0,1-1.427-1.581,4.969,4.969,0,0,1-.51-2.311,5.142,5.142,0,0,1,.51-2.329,3.812,3.812,0,0,1,3.5-2.125,3.966,3.966,0,0,1,2.108.561,3.848,3.848,0,0,1,1.411,1.564,5.116,5.116,0,0,1,.51,2.329,4.945,4.945,0,0,1-.51,2.311,3.825,3.825,0,0,1-1.411,1.581,3.95,3.95,0,0,1-2.108.561A3.837,3.837,0,0,1,7354.032,22.466Zm.053-6.341a3.79,3.79,0,0,0-.765,2.45,3.788,3.788,0,0,0,.765,2.448,2.484,2.484,0,0,0,2.022.934,2.535,2.535,0,0,0,2.041-.934,3.788,3.788,0,0,0,.765-2.448,3.79,3.79,0,0,0-.765-2.45,2.535,2.535,0,0,0-2.041-.934A2.484,2.484,0,0,0,7354.085,16.124Zm86.342,6.223a2.385,2.385,0,0,1-.544-1.667v-5.2l-.782.306a.907.907,0,0,1-.407.1.662.662,0,0,1-.426-.135.493.493,0,0,1-.154-.392.461.461,0,0,1,.12-.306.68.68,0,0,1,.323-.221l1.514-.544a1.732,1.732,0,0,1,.459-.084.6.6,0,0,1,.424.154.577.577,0,0,1,.154.424v5.781a1.513,1.513,0,0,0,.255.953.88.88,0,0,0,.78.323q1.43,0,3.027-2.4v-4.59a.688.688,0,0,1,.17-.51.614.614,0,0,1,.884,0,.786.786,0,0,1,.154.51v6.9h.831a.823.823,0,0,1,.494.137.5.5,0,0,1,.17.39.442.442,0,0,1-.17.392.758.758,0,0,1-.494.154h-1.29q-.681,0-.681-.647V20.885a6.286,6.286,0,0,1-1.581,1.547,3.138,3.138,0,0,1-1.682.51A1.994,1.994,0,0,1,7440.427,22.348Zm-77.792,0a2.376,2.376,0,0,1-.544-1.667v-5.2l-.782.306a.913.913,0,0,1-.409.1.661.661,0,0,1-.424-.135.493.493,0,0,1-.153-.392.45.45,0,0,1,.12-.306.673.673,0,0,1,.323-.221l1.514-.544a1.733,1.733,0,0,1,.458-.084.609.609,0,0,1,.426.154.576.576,0,0,1,.152.424v5.781a1.522,1.522,0,0,0,.255.953.885.885,0,0,0,.782.323q1.43,0,3.027-2.4v-4.59a.693.693,0,0,1,.169-.51.616.616,0,0,1,.885,0,.785.785,0,0,1,.152.51v6.9h.833a.823.823,0,0,1,.494.137.505.505,0,0,1,.17.39.447.447,0,0,1-.17.392.758.758,0,0,1-.494.154h-1.292q-.678,0-.679-.647V20.885a6.286,6.286,0,0,1-1.581,1.547,3.138,3.138,0,0,1-1.682.51A1.991,1.991,0,0,1,7362.636,22.348Zm23.067.476a.663.663,0,0,1-.458-.154.534.534,0,0,1,0-.782.762.762,0,0,1,.458-.137h.816V16.533q0-1.362-1.069-1.36-1.176,0-3.282,2.363v4.214H7383a.762.762,0,0,1,.459.137.53.53,0,0,1,.154.39.467.467,0,0,1-.154.392.7.7,0,0,1-.459.154h-2.872a.6.6,0,0,1-.442-.154.442.442,0,0,1-.171-.392.5.5,0,0,1,.171-.39.689.689,0,0,1,.442-.137h.833V10.923l-.8.306a.816.816,0,0,1-.392.1.571.571,0,0,1-.424-.152.425.425,0,0,1-.171-.375.469.469,0,0,1,.12-.323.866.866,0,0,1,.339-.2l1.512-.544a1.15,1.15,0,0,1,.443-.084.53.53,0,0,1,.578.578v5.932a9.258,9.258,0,0,1,1.819-1.562,3,3,0,0,1,1.581-.476,2.07,2.07,0,0,1,1.6.628,2.6,2.6,0,0,1,.561,1.786v5.218h.833a.768.768,0,0,1,.459.137.538.538,0,0,1,0,.782.668.668,0,0,1-.459.154Zm-40.407,0a.6.6,0,0,1-.443-.154.442.442,0,0,1-.17-.392.5.5,0,0,1,.17-.39.69.69,0,0,1,.443-.137h.833V15.429l-.765.289a.906.906,0,0,1-.442.135.55.55,0,0,1-.407-.152.408.408,0,0,1-.17-.358c0-.249.154-.43.459-.544l1.427-.51a1.192,1.192,0,0,1,.459-.084.61.61,0,0,1,.426.154.576.576,0,0,1,.152.424v1.071a4.218,4.218,0,0,1,1.174-1.326,2.233,2.233,0,0,1,1.24-.373,1.779,1.779,0,0,1,1.258.493,1.847,1.847,0,0,1,.527,1.275v.017a1.613,1.613,0,0,1-.272,1.018.909.909,0,0,1-.782.375,1,1,0,0,1-.681-.238.769.769,0,0,1-.272-.628,1.213,1.213,0,0,1,.2-.681,1.3,1.3,0,0,1,.51-.476.934.934,0,0,0-.527-.118,1.66,1.66,0,0,0-1.1.51,6.275,6.275,0,0,0-1.208,1.819v4.231h.833a.764.764,0,0,1,.459.137.532.532,0,0,1,.154.39.469.469,0,0,1-.154.392.705.705,0,0,1-.459.154Zm-10,0a.733.733,0,0,1-.476-.154.579.579,0,0,1,0-.85.782.782,0,0,1,.476-.137h1.088V12.062H7335.3a.732.732,0,0,1-.476-.152.475.475,0,0,1-.186-.409.522.522,0,0,1,.186-.426.732.732,0,0,1,.476-.152h4.369a4.6,4.6,0,0,1,2.7.731,2.555,2.555,0,0,1,1.018,2.226,2.734,2.734,0,0,1-.458,1.564,2.9,2.9,0,0,1-1.4,1.054,2.92,2.92,0,0,1,1.685,1.155,3.412,3.412,0,0,1,.544,1.9,3.289,3.289,0,0,1-.409,1.6,3.1,3.1,0,0,1-1.291,1.208,4.722,4.722,0,0,1-2.161.46Zm2.363-1.14h2.176a2.8,2.8,0,0,0,1.971-.645,2.088,2.088,0,0,0,.664-1.581,2.217,2.217,0,0,0-.664-1.666,2.492,2.492,0,0,0-1.767-.63h-2.38Zm0-5.627h1.938a3.189,3.189,0,0,0,1.735-.493,1.69,1.69,0,0,0,.766-1.53,1.715,1.715,0,0,0-.681-1.512,3.091,3.091,0,0,0-1.735-.46h-2.022Z" transform="translate(-7286.137 669.202)" fill="#c9a0ee"/>
    </clipPath>
  </defs>
  <g transform="translate(-47.137 -678.85)" clip-path="url(#clip-path1)">
    <rect class="hover" width="141" height="80" transform="translate(-93.863 678.851)" fill="#F46153"/>
    <rect class="default" width="141" height="80" transform="translate(47.137 678.851)" />
  </g>
</svg>
