<svg class="h4c-logo nav-element z-1 absolute" xmlns="http://www.w3.org/2000/svg" xmlns:xlink="http://www.w3.org/1999/xlink" width="140" height="56.314" viewBox="0 0 140 56.314">
  <defs>
    <clipPath id="clip-path2">
      <path id="Logo" d="M108.109,56.314a17.341,17.341,0,0,1-4.494-.529,10.112,10.112,0,0,1-3.134-1.341,7.418,7.418,0,0,1-1.923-1.923,6.97,6.97,0,0,1-1.025-2.162,8.568,8.568,0,0,1-.271-2.15v-.6a8.854,8.854,0,0,1,.259-2.172,6.538,6.538,0,0,1,1.027-2.119,7.141,7.141,0,0,1,1.987-1.88,10.928,10.928,0,0,1,3.306-1.3,20.5,20.5,0,0,1,4.808-.508h.843a24.549,24.549,0,0,1,4.937.441,12.066,12.066,0,0,1,3.283,1.082,6.244,6.244,0,0,1,1.881,1.535,4.93,4.93,0,0,1,.939,1.621,5.881,5.881,0,0,1,.239,1.523v.022h-6.4a1.487,1.487,0,0,0-.139-.38,2.366,2.366,0,0,0-.443-.506,3.033,3.033,0,0,0-.854-.551,7.058,7.058,0,0,0-1.5-.412,12.664,12.664,0,0,0-2.268-.182q-5.556,0-5.554,3.975v.237a3.671,3.671,0,0,0,1.362,2.885,6.2,6.2,0,0,0,4.146,1.178,13.232,13.232,0,0,0,2.162-.163,7.7,7.7,0,0,0,1.566-.4,5.316,5.316,0,0,0,1.015-.519,2.121,2.121,0,0,0,.584-.517.772.772,0,0,0,.16-.412h-5.638V46.958h11.9v9.053h-3.865a8.469,8.469,0,0,0-.756-2.224q-2.293,2.528-7.649,2.528Zm-96.744,0a19.559,19.559,0,0,1-4.96-.562,10.5,10.5,0,0,1-3.316-1.393,7.028,7.028,0,0,1-1.923-1.977,6.7,6.7,0,0,1-.951-2.117A9.313,9.313,0,0,1,0,48.232v-.625a9.779,9.779,0,0,1,.2-2.032,7.044,7.044,0,0,1,2.811-4.028,10.51,10.51,0,0,1,3.326-1.362,20.329,20.329,0,0,1,5.025-.551h.842a24.259,24.259,0,0,1,3.685.259,15.1,15.1,0,0,1,2.806.67,9.6,9.6,0,0,1,2.011.984A6.233,6.233,0,0,1,22.082,42.7a5.611,5.611,0,0,1,.81,1.241,4.91,4.91,0,0,1,.412,1.178,5.522,5.522,0,0,1,.1,1.015v.282H17.026q-.735-2.464-5.294-2.464-5.38,0-5.379,3.759v.259a3.74,3.74,0,0,0,.249,1.36,4.049,4.049,0,0,0,.821,1.276,3.858,3.858,0,0,0,1.684.994,8.484,8.484,0,0,0,2.647.367,10.041,10.041,0,0,0,2.356-.247,5.923,5.923,0,0,0,1.533-.551,2.932,2.932,0,0,0,.866-.757,2.839,2.839,0,0,0,.41-.649c.043-.129.086-.272.129-.433H23.4v.347a5.558,5.558,0,0,1-.215,1.5,5.4,5.4,0,0,1-.951,1.729A7.071,7.071,0,0,1,20.342,54.6a11.049,11.049,0,0,1-3.261,1.221,21.375,21.375,0,0,1-4.873.5Zm110.647-.3V39.936h17.781v3.931H128.063v2.011h11.5v3.91h-11.5v2.2h11.9v4.018Zm-32.465,0L79.48,46.266v9.744H73.387V39.936h6.871l9.333,9.139V39.936h6.1V56.011Zm-23.64,0L64.654,53.42H55.472l-1.233,2.591H48.017l7.951-16.075h8.255l8.4,16.075ZM57.35,49.4h5.339l-2.7-5.531ZM41.142,56.011V49.9H31.1v6.115H24.957V39.936H31.1v5.682H41.142V39.936h6.115V56.011ZM54.327,36.686a17.257,17.257,0,0,1-4.493-.531A10.067,10.067,0,0,1,46.7,34.817a7.358,7.358,0,0,1-1.923-1.923,6.969,6.969,0,0,1-1.027-2.16,8.6,8.6,0,0,1-.271-2.15v-.606a8.783,8.783,0,0,1,.261-2.172,6.47,6.47,0,0,1,1.025-2.119,7.142,7.142,0,0,1,1.987-1.879,10.93,10.93,0,0,1,3.306-1.3,20.518,20.518,0,0,1,4.808-.508h.842a24.4,24.4,0,0,1,4.937.443,12.182,12.182,0,0,1,3.285,1.08,6.259,6.259,0,0,1,1.879,1.535,4.976,4.976,0,0,1,.941,1.621,5.859,5.859,0,0,1,.237,1.523v.022h-6.4a1.494,1.494,0,0,0-.139-.378,2.3,2.3,0,0,0-.443-.508,3.085,3.085,0,0,0-.852-.551,7.117,7.117,0,0,0-1.5-.412,12.656,12.656,0,0,0-2.27-.182q-5.55,0-5.552,3.975v.237A3.671,3.671,0,0,0,51.2,31.295a6.21,6.21,0,0,0,4.149,1.178,13.454,13.454,0,0,0,2.16-.161,7.825,7.825,0,0,0,1.566-.4,5.313,5.313,0,0,0,1.015-.517,2.134,2.134,0,0,0,.584-.519.775.775,0,0,0,.163-.41h-5.64V27.33H67.1v9.052H63.231a8.4,8.4,0,0,0-.756-2.224q-2.29,2.528-7.649,2.528Zm37.047-.3V20.294H140V36.383ZM112.48,24.914a6.059,6.059,0,0,0-1.194.306,3.56,3.56,0,0,0-.847.461,2.665,2.665,0,0,0-.57.553,2.572,2.572,0,0,0-.331.609,2.932,2.932,0,0,0-.167.6,4.05,4.05,0,0,0-.039.566v.261a4.03,4.03,0,0,0,.039.566,3.009,3.009,0,0,0,.167.606,2.586,2.586,0,0,0,.331.617,2.736,2.736,0,0,0,.57.563,3.582,3.582,0,0,0,.847.47,5.921,5.921,0,0,0,1.194.308,9.7,9.7,0,0,0,1.579.118h.393a9.7,9.7,0,0,0,1.579-.118,5.8,5.8,0,0,0,1.188-.308,3.607,3.607,0,0,0,.845-.47,2.819,2.819,0,0,0,.57-.562,2.588,2.588,0,0,0,.332-.617,2.866,2.866,0,0,0,.165-.606,4.03,4.03,0,0,0,.039-.566v-.261a4.05,4.05,0,0,0-.039-.566,2.793,2.793,0,0,0-.165-.6,2.518,2.518,0,0,0-.335-.609,2.845,2.845,0,0,0-.57-.553,3.508,3.508,0,0,0-.845-.461,6.032,6.032,0,0,0-1.194-.306,9.629,9.629,0,0,0-1.569-.116h-.393A9.7,9.7,0,0,0,112.48,24.914Zm12.228,4.263a1.5,1.5,0,0,1,1.015.272,1.1,1.1,0,0,1,.3.849v.758a.524.524,0,0,0,.078.339h2.524v-.043a1.647,1.647,0,0,1-.122-.731v-.958a1.45,1.45,0,0,0-.357-1.005,1.8,1.8,0,0,0-.976-.535,2.209,2.209,0,0,0,.414-.149,2.112,2.112,0,0,0,.42-.261,1.222,1.222,0,0,0,.343-.435,1.377,1.377,0,0,0,.131-.6v-.1q0-1.664-2.726-1.662h-5.884v6.475h2.474V29.176Zm-23.017,2.219h2.445V28.9h4.484V27.312h-4.484V26.5h4.579V24.919h-7.024ZM69.232,36.383V20.308H87.016v3.933H75.284V26.25H86.779v3.91H75.284v2.2h11.9v4.018Zm-31.524,0-1.254-2.591H27.27l-1.23,2.591H19.817l7.951-16.075h8.255l8.4,16.075Zm-8.559-6.611h5.338l-2.7-5.531ZM.155,36.383V20.308h13.4q7.626,0,7.626,5.315v.345q0,5.383-7.626,5.382H6.29v5.033ZM6.29,27.33h6.526q2.031,0,2.03-1.47V25.8q0-1.467-2.03-1.468H6.29Zm106.792,2.289a1.706,1.706,0,0,1-.737-.4,1.594,1.594,0,0,1-.349-.506,1.443,1.443,0,0,1-.1-.545v-.1a1.446,1.446,0,0,1,.1-.535,1.47,1.47,0,0,1,.343-.484,1.747,1.747,0,0,1,.733-.372,4.314,4.314,0,0,1,1.184-.139,4.234,4.234,0,0,1,1.166.139,1.774,1.774,0,0,1,.735.372,1.528,1.528,0,0,1,.355.484,1.382,1.382,0,0,1,.1.535v.123a1.458,1.458,0,0,1-.1.543,1.6,1.6,0,0,1-.351.5,1.709,1.709,0,0,1-.735.386,4.181,4.181,0,0,1-1.17.145A4.1,4.1,0,0,1,113.082,29.619Zm9.261-2.011V26.493h2.837c.5,0,.747.184.747.549v.008q0,.559-.747.559ZM79.049,16.68a24.117,24.117,0,0,1-3.919-.292,14.532,14.532,0,0,1-2.961-.768,8.839,8.839,0,0,1-2.107-1.166,6.872,6.872,0,0,1-1.415-1.393,6.515,6.515,0,0,1-.822-1.535,7.342,7.342,0,0,1-.409-1.5,9.765,9.765,0,0,1-.1-1.405V7.973a9.765,9.765,0,0,1,.1-1.405,7.187,7.187,0,0,1,.409-1.49,6.371,6.371,0,0,1,.822-1.513,6.818,6.818,0,0,1,1.415-1.372,8.862,8.862,0,0,1,2.107-1.147A15.124,15.124,0,0,1,75.129.292,23.907,23.907,0,0,1,79.049,0h.974a23.805,23.805,0,0,1,3.9.292,15.16,15.16,0,0,1,2.959.755,8.574,8.574,0,0,1,2.1,1.147,7.128,7.128,0,0,1,1.415,1.372,6.125,6.125,0,0,1,.833,1.513,7.127,7.127,0,0,1,.409,1.49,9.7,9.7,0,0,1,.1,1.405v.647a9.7,9.7,0,0,1-.1,1.405,7.28,7.28,0,0,1-.409,1.5A6.512,6.512,0,0,1,90.4,13.06a6.843,6.843,0,0,1-1.416,1.393,8.857,8.857,0,0,1-2.095,1.166,14.323,14.323,0,0,1-2.952.768,24.106,24.106,0,0,1-3.92.292ZM76.587,4.666a4.3,4.3,0,0,0-1.817.929,3.511,3.511,0,0,0-.852,1.2,3.492,3.492,0,0,0-.249,1.329v.259a3.5,3.5,0,0,0,.261,1.35,3.921,3.921,0,0,0,.864,1.254,4.266,4.266,0,0,0,1.825.984,10.235,10.235,0,0,0,2.907.367,10.464,10.464,0,0,0,2.906-.357,4.24,4.24,0,0,0,1.827-.96,3.868,3.868,0,0,0,.864-1.245,3.584,3.584,0,0,0,.258-1.348v-.3a3.433,3.433,0,0,0-.258-1.329,3.631,3.631,0,0,0-.876-1.2,4.386,4.386,0,0,0-1.827-.929,10.67,10.67,0,0,0-2.895-.345A10.855,10.855,0,0,0,76.587,4.666ZM.161,16.38V.29H39.268V16.38Zm121.852,0V.3h17.781V4.233H128.063V6.244h11.495v3.91H128.063v2.2h11.9v4.018Zm-8.326,0V6.352l-5.639,10.025h-3.134L99.3,6.352V16.377H93.313V.3h8.428l4.925,9.033L111.678.3h8.081V16.377Zm-54.064,0V10.262H49.577v6.115H43.44V.3h6.137V5.983H59.623V.3h6.115V16.377Z" transform="translate(48 37)" fill="#c9a0ee"/>
    </clipPath>
  </defs>
  <g transform="translate(-48 -37)" clip-path="url(#clip-path2)">
    <rect class="hover" width="140" height="57" transform="translate(-92 37)" fill="#F46153"/>
    <rect class="default" width="140" height="57" transform="translate(48 37)"/>
  </g>
</svg>
