<svg class="btyb-juliet nav-element z-1 absolute" xmlns="http://www.w3.org/2000/svg" xmlns:xlink="http://www.w3.org/1999/xlink" width="140" height="53.427" viewBox="0 0 140 53.427">
  <defs>
    <clipPath id="clip-path1">
      <path id="mask" d="M7340.009,83.22a21.483,21.483,0,0,1-3.86-.887,5.082,5.082,0,0,1-2.757-2.322,4.048,4.048,0,0,1,.135-3.136,3.369,3.369,0,0,1,.465-.8,2.588,2.588,0,0,1,.666-.6,1.939,1.939,0,0,1,.811-.283,1.722,1.722,0,0,1,.683.066,2.049,2.049,0,0,1,1.523,2.057,4.2,4.2,0,0,0,.525,1.626c.042.068.079.133.12.2a4.4,4.4,0,0,0,.855,1.011,4.462,4.462,0,0,0,1.268.784,4.752,4.752,0,0,0,1.853.315,8.306,8.306,0,0,0,3.775-.8,7,7,0,0,0,2.609-2.253,10.153,10.153,0,0,0,1.525-3.462,18.2,18.2,0,0,0,.5-4.4V34.9a2.817,2.817,0,0,0-.145-1,1.4,1.4,0,0,0-.4-.585,1.357,1.357,0,0,0-.613-.285,4.06,4.06,0,0,0-.784-.071,7.565,7.565,0,0,0-1.553.2,12.79,12.79,0,0,0-1.953.6,16.23,16.23,0,0,0-2.067.985,9.98,9.98,0,0,0-1.853,1.324,6.733,6.733,0,0,0-1.326,1.654,3.931,3.931,0,0,0-.512,1.966,3.6,3.6,0,0,0,.242,1.455,2.287,2.287,0,0,0,.555.812,1.455,1.455,0,0,0,.642.341,2.442,2.442,0,0,0,.471.071,2.483,2.483,0,0,0,1.168-.242,6.535,6.535,0,0,0,.825-.514c.248-.18.48-.351.7-.512a1.233,1.233,0,0,1,.756-.242,1.953,1.953,0,0,1,.726.156,2.08,2.08,0,0,1,.713.5,2.89,2.89,0,0,1,.557.9,3.615,3.615,0,0,1,.227,1.354,4.146,4.146,0,0,1-.441,1.967,4.4,4.4,0,0,1-1.142,1.382,4.756,4.756,0,0,1-1.6.827,6.14,6.14,0,0,1-1.78.27,6.211,6.211,0,0,1-2.466-.471,5.426,5.426,0,0,1-1.868-1.3,5.536,5.536,0,0,1-1.167-1.937,6.882,6.882,0,0,1-.4-2.365,8.938,8.938,0,0,1,.712-3.607,10.09,10.09,0,0,1,1.953-2.95,13.171,13.171,0,0,1,2.907-2.294,19.118,19.118,0,0,1,3.6-1.639,24.384,24.384,0,0,1,4.047-.985,27.576,27.576,0,0,1,4.22-.328,11.741,11.741,0,0,1,3.635.443,4.823,4.823,0,0,1,1.909,1.069,2.477,2.477,0,0,1,.728,1.311,7.243,7.243,0,0,1,.113,1.14V67.827c0,2.584-.047,8.883-1.7,10.3-1.625,1.39-7.219,3.087-9.432,3.725-1.317.379-2.662.788-4.066,1.062l.01,0a13.616,13.616,0,0,1-3.4.359C7340.819,83.273,7340.284,83.245,7340.009,83.22Zm29.776-9.081a6.041,6.041,0,0,1-2.487-3.479c-.054-.158-.109-.315-.154-.48a9.453,9.453,0,0,1-.343-2.508V50.026c0-.171-.011-.356-.028-.555a1.945,1.945,0,0,0-.141-.57,1.1,1.1,0,0,0-.343-.443,1.08,1.08,0,0,0-.657-.171,1.426,1.426,0,0,0-.955.384,7.369,7.369,0,0,0-.784.784l-.71-.6a16.529,16.529,0,0,1,1.067-1.326,9.325,9.325,0,0,1,1.553-1.382,8.99,8.99,0,0,1,2.095-1.1,7.5,7.5,0,0,1,2.637-.443,6.716,6.716,0,0,1,2.2.328,4.657,4.657,0,0,1,1.566.883,3.577,3.577,0,0,1,.941,1.311,4.176,4.176,0,0,1,.315,1.611V68.7a2.7,2.7,0,0,0,.127.812,2.641,2.641,0,0,0,.37.756,1.914,1.914,0,0,0,.613.555,1.736,1.736,0,0,0,.883.214,3.153,3.153,0,0,0,.763-.111c1.258-.364,3-.88,4.312-1.27V50.026c0-.171-.011-.356-.03-.555a1.873,1.873,0,0,0-.143-.57,1.06,1.06,0,0,0-.341-.443,1.077,1.077,0,0,0-.656-.171,1.426,1.426,0,0,0-.955.384,7.753,7.753,0,0,0-.784.784l-.712-.6a16.126,16.126,0,0,1,1.071-1.326,9.246,9.246,0,0,1,1.551-1.382,8.926,8.926,0,0,1,2.1-1.1,7.507,7.507,0,0,1,2.6-.439l0,0,.021,0,.01,0a.183.183,0,0,1,.032,0,6.659,6.659,0,0,1,2.817.5,3.723,3.723,0,0,1,1.512,1.227,3.549,3.549,0,0,1,.585,1.553c.011.092.021.18.028.268q.026.177.034.36c.024.3.038.576.038.825V71.633a3.856,3.856,0,0,1-.129.9,2.121,2.121,0,0,1-.6,1,3.744,3.744,0,0,1-1.354.8,6.021,6.021,0,0,1-1.664.306l-.017.021c-.075,0-.135-.013-.208-.015-.164.007-.327.015-.5.015a6.307,6.307,0,0,1-2.367-.356,3.438,3.438,0,0,1-1.281-.84,2.14,2.14,0,0,1-.529-1c-.03-.154-.052-.293-.069-.42-3.282,1.041-8.1,2.536-9.458,2.781a3.3,3.3,0,0,1-.583.047A6.376,6.376,0,0,1,7369.785,74.138Zm45.135.159a3.447,3.447,0,0,1-1.283-.84,2.122,2.122,0,0,1-.527-1,4.481,4.481,0,0,1-.1-.827V49.627a2.649,2.649,0,0,0-.385-1.439,1.407,1.407,0,0,0-1.3-.613,1.829,1.829,0,0,0-.827.171,4.375,4.375,0,0,0-.741.486l-.6-.713a15.508,15.508,0,0,1,1.468-1.069,11.242,11.242,0,0,1,1.752-.927,12.533,12.533,0,0,1,2.023-.656,9.9,9.9,0,0,1,2.281-.257,6.732,6.732,0,0,1,2.879.5,3.723,3.723,0,0,1,1.512,1.227,3.573,3.573,0,0,1,.585,1.553,12.965,12.965,0,0,1,.1,1.454V71.633a3.84,3.84,0,0,1-.127.9,2.137,2.137,0,0,1-.6,1,3.743,3.743,0,0,1-1.354.8,7.109,7.109,0,0,1-2.4.326A6.3,6.3,0,0,1,7414.92,74.3Zm-15.586,0a3.281,3.281,0,0,1-1.268-.84,2.187,2.187,0,0,1-.514-1,4.458,4.458,0,0,1-.1-.827V34.863a2.651,2.651,0,0,0-.386-1.44,1.407,1.407,0,0,0-1.3-.613,2.054,2.054,0,0,0-.84.158,3.561,3.561,0,0,0-.756.471l-.57-.685a17.282,17.282,0,0,1,1.453-1.069,10.625,10.625,0,0,1,1.754-.927,13,13,0,0,1,2.037-.655,9.8,9.8,0,0,1,2.281-.257,6.726,6.726,0,0,1,2.879.5,3.705,3.705,0,0,1,1.512,1.225,3.55,3.55,0,0,1,.585,1.54,12.192,12.192,0,0,1,.1,1.439V71.691a3.7,3.7,0,0,1-.129.883,2.054,2.054,0,0,1-.6.97,3.851,3.851,0,0,1-1.369.784,7.227,7.227,0,0,1-2.408.326A6.31,6.31,0,0,1,7399.334,74.3Zm59.5-.071a5.666,5.666,0,0,1-2.052-1.168,5.874,5.874,0,0,1-1.438-2,6.933,6.933,0,0,1-.542-2.879l-.022-17.39-3.265.96V49.068a17.825,17.825,0,0,0,2.928-1.68,18.134,18.134,0,0,0,4.177-4.231,16.865,16.865,0,0,0,2.734-6.529c0-.009,0-.019.006-.026h2.293v9.453l5.715-1.7q2.191-.63,1.979-1.369a.38.38,0,0,0-.381-.291c-.2-.011-.43-.036-.687-.069a2.125,2.125,0,0,1-.739-.248,1.3,1.3,0,0,1-.533-.825,1.61,1.61,0,0,1,.133-1.345,1.849,1.849,0,0,1,1.12-.8,1.813,1.813,0,0,1,.922-.043,1.922,1.922,0,0,1,.773.371,2.553,2.553,0,0,1,.595.673,3.384,3.384,0,0,1,.375.842,4.049,4.049,0,0,1-.212,3.13,4.633,4.633,0,0,1-3,2l-6.075,1.806V68.127a2.986,2.986,0,0,0,.57,2.095,2.083,2.083,0,0,0,1.566.583,2.309,2.309,0,0,0,1.369-.426,5.069,5.069,0,0,0,1.026-.97,6.08,6.08,0,0,0,.883-1.4l.885.4q-.431.912-1.013,2a8.092,8.092,0,0,1-1.555,2.009,7.991,7.991,0,0,1-2.436,1.553,9.429,9.429,0,0,1-3.691.628A7.826,7.826,0,0,1,7458.834,74.226Zm-24.529-.527a12,12,0,0,1-4.177-2.693,13.217,13.217,0,0,1-2.922-4.475,18.109,18.109,0,0,1-.443-11.032,15.437,15.437,0,0,1,1.782-3.9,14.582,14.582,0,0,1,2.624-3.05,16.272,16.272,0,0,1,3.149-2.181,15.539,15.539,0,0,1,3.378-1.311,13.377,13.377,0,0,1,3.322-.443,13.218,13.218,0,0,1,3.676.458,8.174,8.174,0,0,1,2.609,1.225,5.069,5.069,0,0,1,1.553,1.782,4.646,4.646,0,0,1,.514,2.123,4.042,4.042,0,0,1-.11.925c-.011.1-.022.191-.034.291-.145,1.215-1.876,1.557-1.876,1.557l-4.867,1.273-7.429,2.138c-.005.146-.019.3-.022.445,0,.193-.006.356-.009.535-.021.364-.024.743-.017,1.122,0,.1,0,.208,0,.3l.013-.008a27.809,27.809,0,0,0,.336,3.239c.005.03.007.049.007.049h0a9.469,9.469,0,0,0,.2,1.037,11.833,11.833,0,0,0,.784,2.153,11.456,11.456,0,0,0,1.27,2.067,9.744,9.744,0,0,0,1.739,1.752,8.294,8.294,0,0,0,2.179,1.227,7.322,7.322,0,0,0,2.622.456,7.191,7.191,0,0,0,1.855-.227,7.384,7.384,0,0,0,1.594-.628,10.3,10.3,0,0,0,1.427-.927q.684-.526,1.367-1.125l.713.685a19.524,19.524,0,0,1-1.682,1.937,13.758,13.758,0,0,1-2.479,1.982,14.384,14.384,0,0,1-3.391,1.538,14.656,14.656,0,0,1-4.419.613A13.435,13.435,0,0,1,7434.306,73.7Zm3.249-25.567a4.727,4.727,0,0,0-1.2,1.581,9.875,9.875,0,0,0-.741,2.209c-.152.69-.264,1.386-.356,2.084,1.419-.4,5.667-1.581,6.343-1.816a.9.9,0,0,0,.572-1.009c-.011-.071-.017-.139-.03-.214a.423.423,0,0,0-.011-.051l0-.015a6.32,6.32,0,0,0-.516-1.589,4.107,4.107,0,0,0-.941-1.283,1.978,1.978,0,0,0-1.367-.512A2.619,2.619,0,0,0,7437.554,48.132Zm-22.591-6.4a5.086,5.086,0,0,1-1.481-.84,3.766,3.766,0,0,1-1-1.24,3.472,3.472,0,0,1,0-3.065,3.847,3.847,0,0,1,1-1.268,4.917,4.917,0,0,1,1.481-.855,5.239,5.239,0,0,1,1.838-.313,5.166,5.166,0,0,1,1.812.313,4.754,4.754,0,0,1,1.467.855,3.929,3.929,0,0,1,.982,1.268,3.472,3.472,0,0,1,0,3.065,3.845,3.845,0,0,1-.982,1.24,4.914,4.914,0,0,1-1.467.84,5.123,5.123,0,0,1-1.812.313A5.2,5.2,0,0,1,7414.963,41.731Z" transform="translate(-7286 674.025)" fill="#c9a0ee"/>
    </clipPath>
  </defs>
  <g transform="translate(-47.137 -703.87)" clip-path="url(#clip-path1)">
    <rect class="hover" width="141" height="80" transform="translate(-94 678)" fill="#F46153"/>
    <rect class="default" width="141" height="80" transform="translate(47 678)" />
  </g>
</svg>
